<?xml version="1.0" encoding="UTF-8"?>
<svg xmlns="http://www.w3.org/2000/svg" viewBox="0 0 414 268" width="414" height="268">
  <rect x="0" y="0" width="414" height="268" fill="#e7eef3"/>
  <path d="M 69.5 107.0 L 105.5 169.7" fill="none" stroke="#25527a" stroke-width="11.0" stroke-linecap="round" stroke-linejoin="round"/>
  <path d="M 154.3 50.6 L 270.0 121.9" fill="none" stroke="#25527a" stroke-width="11.0" stroke-linecap="round" stroke-linejoin="round"/>
  <path d="M 227.3 211.3 L 270.0 121.9" fill="none" stroke="#25527a" stroke-width="11.0" stroke-linecap="round" stroke-linejoin="round"/>
  <path d="M 154.3 50.6 Q 225.7 193.7 227.3 211.3" fill="none" stroke="#25527a" stroke-width="11.0" stroke-linecap="round" stroke-linejoin="round"/>
  <path d="M 105.5 169.7 Q 227.0 92.7 370.8 92.6" fill="none" stroke="#e7eef3" stroke-width="21.0" stroke-linecap="round" stroke-linejoin="round"/>
  <path d="M 105.5 169.7 Q 227.0 92.7 370.8 92.6" fill="none" stroke="#25527a" stroke-width="11.0" stroke-linecap="round" stroke-linejoin="round"/>
  <circle cx="69.5" cy="107.0" r="18.8" fill="#e7eef3"/>
  <circle cx="105.5" cy="169.7" r="19.0" fill="#e7eef3"/>
  <circle cx="154.3" cy="50.6" r="18.8" fill="#e7eef3"/>
  <circle cx="227.3" cy="211.3" r="18.8" fill="#e7eef3"/>
  <circle cx="270.0" cy="121.9" r="18.8" fill="#e7eef3"/>
  <circle cx="370.8" cy="92.6" r="18.3" fill="#e7eef3"/>
  <circle cx="69.5" cy="107.0" r="13.8" fill="#25527a"/>
  <circle cx="105.5" cy="169.7" r="14.0" fill="#25527a"/>
  <circle cx="154.3" cy="50.6" r="13.8" fill="#25527a"/>
  <circle cx="227.3" cy="211.3" r="13.8" fill="#25527a"/>
  <circle cx="270.0" cy="121.9" r="13.8" fill="#25527a"/>
  <circle cx="370.8" cy="92.6" r="13.3" fill="#25527a"/>
</svg>
