<?xml version="1.0" encoding="UTF-8"?>
<svg xmlns="http://www.w3.org/2000/svg" viewBox="0 0 414 268" width="414" height="268">
  <defs>
    <mask id="node-gaps" maskUnits="userSpaceOnUse">
      <rect x="0" y="0" width="414" height="268" fill="white"/>
      <circle cx="69.5" cy="107.0" r="18.8" fill="black"/>
      <circle cx="105.5" cy="169.7" r="19.0" fill="black"/>
      <circle cx="162.3" cy="50.6" r="18.8" fill="black"/>
      <circle cx="248.7" cy="201.1" r="18.8" fill="black"/>
      <circle cx="370.8" cy="92.6" r="18.3" fill="black"/>
    </mask>
    <mask id="under-crossing" maskUnits="userSpaceOnUse">
      <rect x="0" y="0" width="414" height="268" fill="white"/>
      <circle cx="69.5" cy="107.0" r="18.8" fill="black"/>
      <circle cx="105.5" cy="169.7" r="19.0" fill="black"/>
      <circle cx="162.3" cy="50.6" r="18.8" fill="black"/>
      <circle cx="248.7" cy="201.1" r="18.8" fill="black"/>
      <circle cx="370.8" cy="92.6" r="18.3" fill="black"/>
      <path d="M 105.5 169.7 Q 227.0 89.0 370.8 92.6" fill="none" stroke="black" stroke-width="21.0" stroke-linecap="round" stroke-linejoin="round"/>
    </mask>
  </defs>
  <g mask="url(#under-crossing)">
    <path d="M 69.5 107.0 L 105.5 169.7" fill="none" stroke="#25527a" stroke-width="11.0" stroke-linecap="round" stroke-linejoin="round"/>
    <path d="M 162.3 50.6 Q 274.1 112.0 248.7 201.1" fill="none" stroke="#25527a" stroke-width="11.0" stroke-linecap="round" stroke-linejoin="round"/>
  </g>
  <path d="M 105.5 169.7 Q 227.0 89.0 370.8 92.6" fill="none" stroke="#25527a" stroke-width="11.0" stroke-linecap="round" stroke-linejoin="round" mask="url(#node-gaps)"/>
  <circle cx="69.5" cy="107.0" r="13.8" fill="#25527a"/>
  <circle cx="105.5" cy="169.7" r="14.0" fill="#25527a"/>
  <circle cx="162.3" cy="50.6" r="13.8" fill="#25527a"/>
  <circle cx="248.7" cy="201.1" r="13.8" fill="#25527a"/>
  <circle cx="370.8" cy="92.6" r="13.3" fill="#25527a"/>
</svg>
